<svg xmlns="http://www.w3.org/2000/svg" xmlns:xlink="http://www.w3.org/1999/xlink" width="500" zoomAndPan="magnify" viewBox="0 0 375 374.999991" height="500" preserveAspectRatio="xMidYMid meet" version="1.0"><defs><g/></defs><path fill="#d31339" d="M 375 187.5 C 375 190.570312 374.925781 193.636719 374.773438 196.699219 C 374.625 199.765625 374.398438 202.824219 374.097656 205.878906 C 373.796875 208.933594 373.421875 211.976562 372.96875 215.011719 C 372.519531 218.046875 371.996094 221.070312 371.398438 224.078125 C 370.796875 227.089844 370.125 230.082031 369.378906 233.058594 C 368.636719 236.035156 367.816406 238.992188 366.925781 241.929688 C 366.035156 244.863281 365.074219 247.777344 364.039062 250.667969 C 363.003906 253.554688 361.902344 256.417969 360.726562 259.253906 C 359.554688 262.089844 358.308594 264.890625 356.996094 267.667969 C 355.6875 270.441406 354.304688 273.179688 352.859375 275.886719 C 351.414062 278.59375 349.902344 281.261719 348.324219 283.894531 C 346.746094 286.527344 345.105469 289.117188 343.402344 291.667969 C 341.695312 294.222656 339.929688 296.730469 338.101562 299.195312 C 336.273438 301.660156 334.386719 304.078125 332.4375 306.449219 C 330.492188 308.820312 328.488281 311.144531 326.429688 313.417969 C 324.367188 315.691406 322.253906 317.914062 320.082031 320.082031 C 317.914062 322.253906 315.691406 324.367188 313.417969 326.429688 C 311.144531 328.488281 308.820312 330.492188 306.449219 332.4375 C 304.078125 334.386719 301.660156 336.273438 299.195312 338.101562 C 296.730469 339.929688 294.222656 341.695312 291.667969 343.402344 C 289.117188 345.105469 286.527344 346.746094 283.894531 348.324219 C 281.261719 349.902344 278.59375 351.414062 275.886719 352.859375 C 273.179688 354.308594 270.441406 355.6875 267.667969 356.996094 C 264.890625 358.308594 262.089844 359.554688 259.253906 360.726562 C 256.417969 361.902344 253.554688 363.003906 250.667969 364.039062 C 247.777344 365.074219 244.863281 366.035156 241.929688 366.925781 C 238.992188 367.816406 236.035156 368.636719 233.058594 369.378906 C 230.082031 370.125 227.089844 370.796875 224.078125 371.398438 C 221.070312 371.996094 218.046875 372.519531 215.011719 372.96875 C 211.976562 373.421875 208.933594 373.796875 205.878906 374.097656 C 202.824219 374.398438 199.765625 374.625 196.699219 374.773438 C 193.636719 374.925781 190.570312 375 187.5 375 C 184.429688 375 181.363281 374.925781 178.300781 374.773438 C 175.234375 374.625 172.175781 374.398438 169.121094 374.097656 C 166.066406 373.796875 163.023438 373.421875 159.988281 372.96875 C 156.953125 372.519531 153.929688 371.996094 150.921875 371.398438 C 147.910156 370.796875 144.917969 370.125 141.941406 369.378906 C 138.964844 368.636719 136.007812 367.816406 133.070312 366.925781 C 130.136719 366.035156 127.222656 365.074219 124.332031 364.039062 C 121.445312 363.003906 118.582031 361.902344 115.746094 360.726562 C 112.910156 359.554688 110.105469 358.308594 107.332031 356.996094 C 104.558594 355.6875 101.820312 354.308594 99.113281 352.859375 C 96.40625 351.414062 93.738281 349.902344 91.105469 348.324219 C 88.472656 346.746094 85.882812 345.105469 83.332031 343.402344 C 80.777344 341.695312 78.269531 339.929688 75.804688 338.101562 C 73.339844 336.273438 70.921875 334.386719 68.550781 332.4375 C 66.179688 330.492188 63.855469 328.488281 61.582031 326.429688 C 59.308594 324.367188 57.085938 322.253906 54.917969 320.082031 C 52.746094 317.914062 50.632812 315.691406 48.570312 313.417969 C 46.511719 311.144531 44.507812 308.820312 42.558594 306.449219 C 40.613281 304.078125 38.726562 301.660156 36.898438 299.195312 C 35.070312 296.730469 33.304688 294.222656 31.597656 291.667969 C 29.894531 289.117188 28.253906 286.527344 26.675781 283.894531 C 25.097656 281.261719 23.585938 278.59375 22.140625 275.886719 C 20.691406 273.179688 19.3125 270.441406 18.003906 267.667969 C 16.691406 264.890625 15.445312 262.089844 14.273438 259.253906 C 13.097656 256.417969 11.996094 253.554688 10.960938 250.667969 C 9.925781 247.777344 8.964844 244.863281 8.074219 241.929688 C 7.183594 238.992188 6.363281 236.035156 5.617188 233.058594 C 4.875 230.082031 4.203125 227.089844 3.601562 224.078125 C 3.003906 221.070312 2.480469 218.046875 2.03125 215.011719 C 1.578125 211.976562 1.203125 208.933594 0.902344 205.878906 C 0.601562 202.824219 0.375 199.765625 0.226562 196.699219 C 0.0742188 193.636719 0 190.570312 0 187.5 C 0 184.429688 0.0742188 181.363281 0.226562 178.300781 C 0.375 175.234375 0.601562 172.175781 0.902344 169.121094 C 1.203125 166.066406 1.578125 163.023438 2.03125 159.988281 C 2.480469 156.953125 3.003906 153.929688 3.601562 150.921875 C 4.203125 147.910156 4.875 144.917969 5.617188 141.941406 C 6.363281 138.964844 7.183594 136.007812 8.074219 133.070312 C 8.964844 130.136719 9.925781 127.222656 10.960938 124.332031 C 11.996094 121.445312 13.097656 118.582031 14.273438 115.746094 C 15.445312 112.910156 16.691406 110.105469 18.003906 107.332031 C 19.3125 104.558594 20.691406 101.820312 22.140625 99.113281 C 23.585938 96.40625 25.097656 93.738281 26.675781 91.105469 C 28.253906 88.472656 29.894531 85.882812 31.597656 83.332031 C 33.304688 80.777344 35.070312 78.269531 36.898438 75.804688 C 38.726562 73.339844 40.613281 70.921875 42.558594 68.550781 C 44.507812 66.179688 46.511719 63.855469 48.570312 61.582031 C 50.632812 59.308594 52.746094 57.085938 54.917969 54.917969 C 57.085938 52.746094 59.308594 50.632812 61.582031 48.570312 C 63.855469 46.511719 66.179688 44.507812 68.550781 42.558594 C 70.921875 40.613281 73.339844 38.726562 75.804688 36.898438 C 78.269531 35.070312 80.777344 33.304688 83.332031 31.597656 C 85.882812 29.894531 88.472656 28.253906 91.105469 26.675781 C 93.738281 25.097656 96.40625 23.585938 99.113281 22.140625 C 101.820312 20.691406 104.558594 19.3125 107.332031 18.003906 C 110.105469 16.691406 112.910156 15.445312 115.746094 14.273438 C 118.582031 13.097656 121.445312 11.996094 124.332031 10.960938 C 127.222656 9.925781 130.136719 8.964844 133.070312 8.074219 C 136.007812 7.183594 138.964844 6.363281 141.941406 5.617188 C 144.917969 4.875 147.910156 4.203125 150.921875 3.601562 C 153.929688 3.003906 156.953125 2.480469 159.988281 2.03125 C 163.023438 1.578125 166.066406 1.203125 169.121094 0.902344 C 172.175781 0.601562 175.234375 0.375 178.300781 0.226562 C 181.363281 0.0742188 184.429688 0 187.5 0 C 190.570312 0 193.636719 0.0742188 196.699219 0.226562 C 199.765625 0.375 202.824219 0.601562 205.878906 0.902344 C 208.933594 1.203125 211.976562 1.578125 215.011719 2.03125 C 218.046875 2.480469 221.070312 3.003906 224.078125 3.601562 C 227.089844 4.203125 230.082031 4.875 233.058594 5.617188 C 236.035156 6.363281 238.992188 7.183594 241.929688 8.074219 C 244.863281 8.964844 247.777344 9.925781 250.667969 10.960938 C 253.554688 11.996094 256.417969 13.097656 259.253906 14.273438 C 262.089844 15.445312 264.890625 16.691406 267.667969 18.003906 C 270.441406 19.3125 273.179688 20.691406 275.886719 22.140625 C 278.59375 23.585938 281.261719 25.097656 283.894531 26.675781 C 286.527344 28.253906 289.117188 29.894531 291.667969 31.597656 C 294.222656 33.304688 296.730469 35.070312 299.195312 36.898438 C 301.660156 38.726562 304.078125 40.613281 306.449219 42.558594 C 308.820312 44.507812 311.144531 46.511719 313.417969 48.570312 C 315.691406 50.632812 317.914062 52.746094 320.082031 54.917969 C 322.253906 57.085938 324.367188 59.308594 326.429688 61.582031 C 328.488281 63.855469 330.492188 66.179688 332.4375 68.550781 C 334.386719 70.921875 336.273438 73.339844 338.101562 75.804688 C 339.929688 78.269531 341.695312 80.777344 343.402344 83.332031 C 345.105469 85.882812 346.746094 88.472656 348.324219 91.105469 C 349.902344 93.738281 351.414062 96.40625 352.859375 99.113281 C 354.304688 101.820312 355.6875 104.558594 356.996094 107.332031 C 358.308594 110.105469 359.554688 112.910156 360.726562 115.746094 C 361.902344 118.582031 363.003906 121.445312 364.039062 124.332031 C 365.074219 127.222656 366.035156 130.136719 366.925781 133.070312 C 367.816406 136.007812 368.636719 138.964844 369.378906 141.941406 C 370.125 144.917969 370.796875 147.910156 371.398438 150.921875 C 371.996094 153.929688 372.519531 156.953125 372.96875 159.988281 C 373.421875 163.023438 373.796875 166.066406 374.097656 169.121094 C 374.398438 172.175781 374.625 175.234375 374.773438 178.300781 C 374.925781 181.363281 375 184.429688 375 187.5 Z M 375 187.5 " fill-opacity="1" fill-rule="nonzero"/><g fill="#ffffff" fill-opacity="1"><g transform="translate(234.356474, 72.471224)"><g><path d="M -208.265625 63.09375 C -203.171875 63.03125 -198.078125 62.675781 -192.984375 62.03125 C -190.742188 61.832031 -188.460938 61.613281 -186.140625 61.375 C -164.992188 59.550781 -143.890625 57.082031 -122.828125 53.96875 C -121.773438 53.832031 -120.90625 53.722656 -120.21875 53.640625 C -119.050781 53.566406 -118.210938 53.453125 -117.703125 53.296875 C -117.191406 53.148438 -116.804688 52.8125 -116.546875 52.28125 C -116.296875 51.75 -116.03125 50.90625 -115.75 49.75 C -115.539062 49.09375 -115.296875 48.265625 -115.015625 47.265625 C -112.484375 39.148438 -110.25 30.9375 -108.3125 22.625 C -107.0625 17.269531 -106.25 11.835938 -105.875 6.328125 C -105.695312 4.597656 -105.769531 2.941406 -106.09375 1.359375 C -106.414062 -0.210938 -107.3125 -1.546875 -108.78125 -2.640625 C -108.988281 -2.742188 -109.078125 -2.894531 -109.046875 -3.09375 C -109.015625 -3.300781 -108.914062 -3.503906 -108.75 -3.703125 C -108.59375 -3.898438 -108.414062 -4.035156 -108.21875 -4.109375 C -105.144531 -4.984375 -103.117188 -4.109375 -102.140625 -1.484375 C -101.585938 -0.00390625 -101.328125 1.550781 -101.359375 3.1875 C -101.335938 3.3125 -101.328125 3.398438 -101.328125 3.453125 C -101.203125 6.242188 -101.34375 9.039062 -101.75 11.84375 C -102.15625 14.65625 -102.640625 17.488281 -103.203125 20.34375 C -105.128906 28.914062 -107.375 37.421875 -109.9375 45.859375 C -110.070312 46.222656 -110.171875 46.578125 -110.234375 46.921875 C -110.359375 47.335938 -110.5 47.773438 -110.65625 48.234375 C -110.875 48.835938 -111.0625 49.441406 -111.21875 50.046875 C -111.382812 50.660156 -111.398438 51.28125 -111.265625 51.90625 C -110.941406 52.113281 -110.632812 52.222656 -110.34375 52.234375 C -110.0625 52.253906 -109.78125 52.21875 -109.5 52.125 C -109.445312 52.125 -109.378906 52.117188 -109.296875 52.109375 C -106.828125 51.796875 -104.347656 51.453125 -101.859375 51.078125 C -101.171875 50.992188 -100.445312 50.898438 -99.6875 50.796875 C -98.78125 50.628906 -98.046875 50.238281 -97.484375 49.625 C -96.921875 49.019531 -96.394531 48.300781 -95.90625 47.46875 C -95.28125 46.394531 -94.644531 45.328125 -94 44.265625 C -91.289062 39.734375 -88.554688 35.238281 -85.796875 30.78125 C -81.691406 24.269531 -77.335938 17.945312 -72.734375 11.8125 C -68.140625 5.6875 -63.1875 -0.140625 -57.875 -5.671875 C -51.195312 -12.773438 -43.96875 -19.191406 -36.1875 -24.921875 C -24.25 -33.441406 -11.234375 -38.410156 2.859375 -39.828125 C 16.117188 -41.210938 28.5 -39.15625 40 -33.65625 C 43.238281 -32.125 46.1875 -30.15625 48.84375 -27.75 C 50.632812 -26.03125 52.125 -24.117188 53.3125 -22.015625 C 54.507812 -19.910156 55.273438 -17.554688 55.609375 -14.953125 C 55.867188 -11.816406 55.519531 -8.832031 54.5625 -6 C 53.601562 -3.175781 52.109375 -0.53125 50.078125 1.9375 C 47.285156 5.414062 44.117188 8.460938 40.578125 11.078125 C 37.160156 13.703125 33.585938 16.070312 29.859375 18.1875 C 26.140625 20.300781 22.363281 22.242188 18.53125 24.015625 C 12.34375 26.910156 6.046875 29.484375 -0.359375 31.734375 C -6.773438 33.992188 -13.234375 36.046875 -19.734375 37.890625 C -35.210938 42.078125 -50.820312 45.53125 -66.5625 48.25 C -74.59375 49.78125 -82.617188 51.054688 -90.640625 52.078125 C -92.859375 52.296875 -94.445312 53.445312 -95.40625 55.53125 C -97.144531 58.800781 -98.898438 62.078125 -100.671875 65.359375 C -103.421875 70.410156 -106.109375 75.53125 -108.734375 80.71875 C -120.898438 105.050781 -132.382812 129.671875 -143.1875 154.578125 C -144.09375 156.679688 -144.960938 158.816406 -145.796875 160.984375 C -146.191406 162.078125 -146.609375 163.179688 -147.046875 164.296875 C -147.566406 165.734375 -148.566406 166.625 -150.046875 166.96875 C -150.859375 167.070312 -151.476562 166.914062 -151.90625 166.5 C -152.34375 166.082031 -152.472656 165.484375 -152.296875 164.703125 C -152.085938 164.023438 -151.832031 163.378906 -151.53125 162.765625 C -149.8125 158.484375 -148.34375 154.179688 -147.125 149.859375 C -146.664062 148.335938 -146.207031 146.835938 -145.75 145.359375 C -141.363281 131.441406 -136.953125 117.507812 -132.515625 103.5625 C -129.128906 92.800781 -125.710938 82.007812 -122.265625 71.1875 C -121.285156 68 -120.3125 64.820312 -119.34375 61.65625 C -119.132812 61 -118.925781 60.359375 -118.71875 59.734375 C -118.6875 59.597656 -118.65625 59.445312 -118.625 59.28125 C -118.488281 58.84375 -118.390625 58.410156 -118.328125 57.984375 C -118.265625 57.554688 -118.347656 57.160156 -118.578125 56.796875 C -119.015625 56.554688 -119.492188 56.457031 -120.015625 56.5 C -120.546875 56.539062 -121.03125 56.585938 -121.46875 56.640625 C -121.832031 56.742188 -122.160156 56.8125 -122.453125 56.84375 C -124.640625 57.070312 -126.832031 57.351562 -129.03125 57.6875 C -132.019531 58.0625 -135.03125 58.414062 -138.0625 58.75 C -154.46875 60.539062 -170.898438 62.28125 -187.359375 63.96875 C -192.765625 64.539062 -198.140625 64.992188 -203.484375 65.328125 C -203.972656 65.335938 -204.476562 65.375 -205 65.4375 C -205.28125 65.46875 -205.597656 65.507812 -205.953125 65.5625 C -206.628906 65.644531 -207.289062 65.664062 -207.9375 65.625 C -208.59375 65.59375 -209.238281 65.441406 -209.875 65.171875 C -209.988281 65.109375 -210.082031 64.992188 -210.15625 64.828125 C -210.226562 64.671875 -210.242188 64.539062 -210.203125 64.4375 C -210.222656 64.25 -210.171875 64.070312 -210.046875 63.90625 C -209.921875 63.738281 -209.804688 63.625 -209.703125 63.5625 C -209.253906 63.3125 -208.773438 63.15625 -208.265625 63.09375 Z M -90.921875 47.71875 C -91.054688 48.101562 -91.035156 48.429688 -90.859375 48.703125 C -90.679688 48.984375 -90.421875 49.097656 -90.078125 49.046875 C -89.535156 49.035156 -88.984375 48.96875 -88.421875 48.84375 C -88.128906 48.800781 -87.835938 48.765625 -87.546875 48.734375 C -67.753906 45.972656 -48.097656 42.078125 -28.578125 37.046875 C -21.109375 35.160156 -13.710938 32.992188 -6.390625 30.546875 C 0.921875 28.097656 8.128906 25.269531 15.234375 22.0625 C 19.015625 20.351562 22.71875 18.472656 26.34375 16.421875 C 29.976562 14.378906 33.484375 12.050781 36.859375 9.4375 C 40.390625 6.820312 43.519531 3.78125 46.25 0.3125 C 49.425781 -3.90625 50.972656 -8.160156 50.890625 -12.453125 C 50.804688 -16.753906 49.148438 -20.703125 45.921875 -24.296875 C 43.554688 -26.785156 40.84375 -28.835938 37.78125 -30.453125 C 26.613281 -36.421875 13.953125 -38.570312 -0.203125 -36.90625 C -3.828125 -36.445312 -7.9375 -35.441406 -12.53125 -33.890625 C -17.070312 -32.328125 -21.398438 -30.332031 -25.515625 -27.90625 C -29.628906 -25.476562 -33.578125 -22.726562 -37.359375 -19.65625 C -46.671875 -12.144531 -55.109375 -3.707031 -62.671875 5.65625 C -67.910156 12.007812 -72.773438 18.609375 -77.265625 25.453125 C -81.753906 32.304688 -86.070312 39.253906 -90.21875 46.296875 C -90.445312 46.804688 -90.679688 47.28125 -90.921875 47.71875 Z M -113.984375 58.921875 C -116.679688 68.078125 -119.507812 77.21875 -122.46875 86.34375 C -122.582031 86.84375 -123.015625 88.28125 -123.765625 90.65625 C -124.515625 93.03125 -125.375 95.789062 -126.34375 98.9375 C -127.320312 102.09375 -128.203125 105.066406 -128.984375 107.859375 C -129.773438 110.660156 -130.316406 112.75 -130.609375 114.125 C -130.910156 115.507812 -130.757812 115.617188 -130.15625 114.453125 C -130 114.191406 -129.882812 113.929688 -129.8125 113.671875 C -129.300781 112.679688 -128.8125 111.695312 -128.34375 110.71875 C -124.488281 102.644531 -120.609375 94.582031 -116.703125 86.53125 C -112.796875 78.476562 -108.703125 70.507812 -104.421875 62.625 C -104.015625 61.875 -103.597656 61.09375 -103.171875 60.28125 C -102.347656 58.789062 -101.539062 57.285156 -100.75 55.765625 C -100.425781 55.140625 -100.375 54.644531 -100.59375 54.28125 C -100.8125 53.914062 -101.238281 53.773438 -101.875 53.859375 C -102.914062 53.992188 -103.941406 54.15625 -104.953125 54.34375 C -106.578125 54.675781 -108.1875 54.945312 -109.78125 55.15625 C -111.019531 55.257812 -111.941406 55.644531 -112.546875 56.3125 C -113.148438 56.976562 -113.628906 57.847656 -113.984375 58.921875 Z M -113.984375 58.921875 "/></g></g></g><g fill="#ffffff" fill-opacity="1"><g transform="translate(131.129313, 288.644896)"><g><path d="M 206.625 -124.1875 C 207.351562 -123.613281 208.015625 -122.960938 208.609375 -122.234375 C 209.203125 -121.503906 209.597656 -120.625 209.796875 -119.59375 C 210.015625 -118.46875 209.632812 -117.585938 208.65625 -116.953125 C 208.0625 -116.640625 207.476562 -116.582031 206.90625 -116.78125 C 206.332031 -116.976562 205.910156 -117.398438 205.640625 -118.046875 C 204.929688 -119.816406 203.898438 -121.203125 202.546875 -122.203125 C 201.203125 -123.210938 199.738281 -124.082031 198.15625 -124.8125 C 194.695312 -126.5 191.128906 -127.847656 187.453125 -128.859375 C 183.773438 -129.878906 180.078125 -130.75 176.359375 -131.46875 C 170.148438 -132.582031 161.914062 -133.171875 151.65625 -133.234375 C 141.394531 -133.296875 129.988281 -132.785156 117.4375 -131.703125 C 104.894531 -130.617188 92.070312 -128.863281 78.96875 -126.4375 C 65.875 -124.019531 53.359375 -120.875 41.421875 -117 C 29.492188 -113.132812 19.0625 -108.457031 10.125 -102.96875 C 1.1875 -97.476562 -5.410156 -91.140625 -9.671875 -83.953125 C -13.222656 -77.691406 -13.769531 -71.191406 -11.3125 -64.453125 C -9.519531 -59.828125 -7.046875 -55.648438 -3.890625 -51.921875 C 0.828125 -46.347656 6.015625 -41.257812 11.671875 -36.65625 C 16.441406 -32.5625 21.257812 -28.472656 26.125 -24.390625 C 30.851562 -20.460938 35.585938 -16.484375 40.328125 -12.453125 C 45.609375 -7.890625 50.804688 -3.269531 55.921875 1.40625 C 56.398438 1.851562 56.890625 2.285156 57.390625 2.703125 C 60.160156 5.117188 62.613281 7.8125 64.75 10.78125 C 66.945312 14.1875 67.429688 16.867188 66.203125 18.828125 C 64.972656 20.785156 62.5625 22.160156 58.96875 22.953125 C 55.375 23.742188 51.1875 24.085938 46.40625 23.984375 C 41.625 23.878906 36.796875 23.429688 31.921875 22.640625 C 27.046875 21.859375 22.707031 20.875 18.90625 19.6875 C 15.101562 18.5 12.410156 17.238281 10.828125 15.90625 C 7.628906 13.144531 7.328125 10.113281 9.921875 6.8125 C 12.722656 3.4375 16.1875 0.9375 20.3125 -0.6875 C 26.300781 -3.21875 32.421875 -3.601562 38.671875 -1.84375 C 39.878906 -1.4375 41.035156 -0.90625 42.140625 -0.25 C 42.253906 -0.1875 42.351562 -0.117188 42.4375 -0.046875 C 42.738281 0.109375 42.945312 0.347656 43.0625 0.671875 C 43.1875 0.992188 43.144531 1.347656 42.9375 1.734375 C 42.46875 2.347656 41.875 2.546875 41.15625 2.328125 C 40.476562 2.109375 39.835938 1.832031 39.234375 1.5 C 34.867188 -0.507812 30.4375 -0.820312 25.9375 0.5625 C 21.445312 1.957031 17.703125 4.550781 14.703125 8.34375 C 13.398438 10.175781 13.378906 11.738281 14.640625 13.03125 C 15.898438 14.332031 17.800781 15.410156 20.34375 16.265625 C 22.882812 17.128906 25.429688 17.785156 27.984375 18.234375 C 30.535156 18.691406 32.441406 18.992188 33.703125 19.140625 C 33.953125 19.128906 34.128906 19.148438 34.234375 19.203125 C 34.484375 19.191406 34.78125 19.210938 35.125 19.265625 C 36.738281 19.566406 38.945312 19.867188 41.75 20.171875 C 44.550781 20.472656 47.429688 20.648438 50.390625 20.703125 C 53.347656 20.765625 55.875 20.488281 57.96875 19.875 C 60.070312 19.269531 61.234375 18.1875 61.453125 16.625 C 61.679688 15.070312 60.429688 12.820312 57.703125 9.875 C 54.804688 6.726562 51.75 3.6875 48.53125 0.75 C 40.53125 -6.53125 32.328125 -13.566406 23.921875 -20.359375 C 20.910156 -22.898438 17.894531 -25.441406 14.875 -27.984375 C 9.863281 -32.222656 4.921875 -36.582031 0.046875 -41.0625 C -4.460938 -45.132812 -8.46875 -49.660156 -11.96875 -54.640625 C -14.476562 -58.265625 -16.273438 -62.191406 -17.359375 -66.421875 C -19.003906 -73.359375 -17.914062 -79.847656 -14.09375 -85.890625 C -9.90625 -92.648438 -3.710938 -98.710938 4.484375 -104.078125 C 12.679688 -109.441406 22.234375 -114.101562 33.140625 -118.0625 C 44.046875 -122.03125 55.691406 -125.332031 68.078125 -127.96875 C 80.472656 -130.601562 93.015625 -132.59375 105.703125 -133.9375 C 118.390625 -135.28125 130.570312 -135.984375 142.25 -136.046875 C 153.9375 -136.117188 164.535156 -135.570312 174.046875 -134.40625 C 183.554688 -133.25 191.378906 -131.472656 197.515625 -129.078125 C 200.753906 -127.929688 203.789062 -126.300781 206.625 -124.1875 Z M 206.625 -124.1875 "/></g></g></g></svg>