<svg xmlns="http://www.w3.org/2000/svg" xmlns:xlink="http://www.w3.org/1999/xlink" width="500" zoomAndPan="magnify" viewBox="0 0 375 374.999991" height="500" preserveAspectRatio="xMidYMid meet" version="1.0"><defs><g/></defs><g fill="#ffffff" fill-opacity="1"><g transform="translate(224.477021, 126.33115)"><g><path d="M -133.265625 40.375 C -130.023438 40.34375 -126.769531 40.117188 -123.5 39.703125 C -122.070312 39.578125 -120.617188 39.4375 -119.140625 39.28125 C -105.609375 38.113281 -92.097656 36.535156 -78.609375 34.546875 C -77.929688 34.460938 -77.375 34.390625 -76.9375 34.328125 C -76.195312 34.285156 -75.660156 34.210938 -75.328125 34.109375 C -75.003906 34.015625 -74.757812 33.796875 -74.59375 33.453125 C -74.4375 33.117188 -74.265625 32.585938 -74.078125 31.859375 C -73.941406 31.421875 -73.796875 30.878906 -73.640625 30.234375 C -72.003906 25.046875 -70.570312 19.796875 -69.34375 14.484375 C -68.53125 11.054688 -68.003906 7.578125 -67.765625 4.046875 C -67.640625 2.929688 -67.679688 1.867188 -67.890625 0.859375 C -68.097656 -0.140625 -68.675781 -0.988281 -69.625 -1.6875 C -69.757812 -1.757812 -69.816406 -1.859375 -69.796875 -1.984375 C -69.773438 -2.109375 -69.710938 -2.234375 -69.609375 -2.359375 C -69.503906 -2.492188 -69.390625 -2.582031 -69.265625 -2.625 C -67.296875 -3.1875 -66 -2.628906 -65.375 -0.953125 C -65.007812 -0.00390625 -64.84375 0.988281 -64.875 2.03125 C -64.863281 2.113281 -64.859375 2.171875 -64.859375 2.203125 C -64.773438 3.992188 -64.859375 5.789062 -65.109375 7.59375 C -65.367188 9.394531 -65.679688 11.207031 -66.046875 13.03125 C -67.285156 18.507812 -68.722656 23.945312 -70.359375 29.34375 C -70.441406 29.570312 -70.503906 29.804688 -70.546875 30.046875 C -70.628906 30.304688 -70.722656 30.582031 -70.828125 30.875 C -70.960938 31.269531 -71.082031 31.65625 -71.1875 32.03125 C -71.289062 32.414062 -71.300781 32.8125 -71.21875 33.21875 C -71.007812 33.351562 -70.8125 33.421875 -70.625 33.421875 C -70.4375 33.429688 -70.253906 33.410156 -70.078125 33.359375 C -70.035156 33.359375 -69.988281 33.351562 -69.9375 33.34375 C -68.363281 33.144531 -66.78125 32.925781 -65.1875 32.6875 C -64.75 32.632812 -64.285156 32.578125 -63.796875 32.515625 C -63.222656 32.410156 -62.753906 32.160156 -62.390625 31.765625 C -62.023438 31.378906 -61.691406 30.914062 -61.390625 30.375 C -60.984375 29.6875 -60.578125 29.003906 -60.171875 28.328125 C -58.429688 25.429688 -56.675781 22.550781 -54.90625 19.6875 C -52.28125 15.53125 -49.492188 11.488281 -46.546875 7.5625 C -43.609375 3.644531 -40.4375 -0.0859375 -37.03125 -3.640625 C -32.757812 -8.179688 -28.132812 -12.285156 -23.15625 -15.953125 C -15.519531 -21.398438 -7.195312 -24.578125 1.8125 -25.484375 C 10.3125 -26.367188 18.242188 -25.054688 25.609375 -21.546875 C 27.671875 -20.566406 29.550781 -19.304688 31.25 -17.765625 C 32.394531 -16.660156 33.347656 -15.429688 34.109375 -14.078125 C 34.878906 -12.734375 35.375 -11.226562 35.59375 -9.5625 C 35.75 -7.5625 35.519531 -5.65625 34.90625 -3.84375 C 34.300781 -2.039062 33.347656 -0.347656 32.046875 1.234375 C 30.265625 3.460938 28.238281 5.414062 25.96875 7.09375 C 23.78125 8.769531 21.492188 10.28125 19.109375 11.625 C 16.722656 12.976562 14.304688 14.226562 11.859375 15.375 C 7.898438 17.21875 3.875 18.863281 -0.21875 20.3125 C -4.320312 21.757812 -8.457031 23.066406 -12.625 24.234375 C -22.53125 26.910156 -32.519531 29.125 -42.59375 30.875 C -47.726562 31.851562 -52.867188 32.671875 -58.015625 33.328125 C -59.421875 33.484375 -60.4375 34.222656 -61.0625 35.546875 C -62.1875 37.628906 -63.304688 39.726562 -64.421875 41.84375 C -66.191406 45.070312 -67.914062 48.34375 -69.59375 51.65625 C -77.375 67.226562 -84.722656 82.988281 -91.640625 98.9375 C -92.210938 100.289062 -92.773438 101.660156 -93.328125 103.046875 C -93.578125 103.734375 -93.84375 104.4375 -94.125 105.15625 C -94.445312 106.070312 -95.082031 106.640625 -96.03125 106.859375 C -96.550781 106.929688 -96.945312 106.832031 -97.21875 106.5625 C -97.5 106.300781 -97.578125 105.914062 -97.453125 105.40625 C -97.335938 104.976562 -97.1875 104.5625 -97 104.15625 C -95.894531 101.425781 -94.953125 98.675781 -94.171875 95.90625 C -93.867188 94.9375 -93.570312 93.984375 -93.28125 93.046875 C -90.46875 84.128906 -87.640625 75.207031 -84.796875 66.28125 C -82.648438 59.394531 -80.460938 52.488281 -78.234375 45.5625 C -77.617188 43.507812 -77.003906 41.476562 -76.390625 39.46875 C -76.253906 39.039062 -76.117188 38.625 -75.984375 38.21875 C -75.960938 38.144531 -75.941406 38.054688 -75.921875 37.953125 C -75.835938 37.660156 -75.773438 37.378906 -75.734375 37.109375 C -75.691406 36.835938 -75.742188 36.582031 -75.890625 36.34375 C -76.160156 36.195312 -76.460938 36.132812 -76.796875 36.15625 C -77.140625 36.1875 -77.457031 36.222656 -77.75 36.265625 C -77.976562 36.316406 -78.1875 36.359375 -78.375 36.390625 C -79.78125 36.535156 -81.179688 36.710938 -82.578125 36.921875 C -84.492188 37.160156 -86.425781 37.390625 -88.375 37.609375 C -98.863281 38.753906 -109.378906 39.863281 -119.921875 40.9375 C -123.378906 41.3125 -126.816406 41.601562 -130.234375 41.8125 C -130.546875 41.8125 -130.863281 41.832031 -131.1875 41.875 C -131.375 41.894531 -131.578125 41.921875 -131.796875 41.953125 C -132.234375 42.003906 -132.660156 42.019531 -133.078125 42 C -133.503906 41.976562 -133.921875 41.882812 -134.328125 41.71875 C -134.390625 41.675781 -134.445312 41.601562 -134.5 41.5 C -134.550781 41.40625 -134.566406 41.316406 -134.546875 41.234375 C -134.554688 41.117188 -134.519531 41.007812 -134.4375 40.90625 C -134.351562 40.800781 -134.28125 40.726562 -134.21875 40.6875 C -133.925781 40.519531 -133.609375 40.414062 -133.265625 40.375 Z M -58.1875 30.53125 C -58.28125 30.78125 -58.265625 30.992188 -58.140625 31.171875 C -58.023438 31.347656 -57.863281 31.421875 -57.65625 31.390625 C -57.3125 31.378906 -56.953125 31.335938 -56.578125 31.265625 C -56.398438 31.242188 -56.21875 31.21875 -56.03125 31.1875 C -43.363281 29.414062 -30.78125 26.925781 -18.28125 23.71875 C -13.507812 22.519531 -8.78125 21.128906 -4.09375 19.546875 C 0.59375 17.972656 5.203125 16.164062 9.734375 14.125 C 12.160156 13.039062 14.535156 11.835938 16.859375 10.515625 C 19.179688 9.203125 21.425781 7.707031 23.59375 6.03125 C 25.851562 4.351562 27.859375 2.410156 29.609375 0.203125 C 31.640625 -2.492188 32.628906 -5.21875 32.578125 -7.96875 C 32.523438 -10.726562 31.460938 -13.257812 29.390625 -15.5625 C 27.878906 -17.15625 26.140625 -18.46875 24.171875 -19.5 C 17.035156 -23.320312 8.929688 -24.695312 -0.140625 -23.625 C -2.460938 -23.332031 -5.082031 -22.6875 -8 -21.6875 C -10.925781 -20.6875 -13.707031 -19.410156 -16.34375 -17.859375 C -18.976562 -16.304688 -21.5 -14.546875 -23.90625 -12.578125 C -29.875 -7.765625 -35.273438 -2.363281 -40.109375 3.625 C -43.460938 7.6875 -46.570312 11.910156 -49.4375 16.296875 C -52.3125 20.691406 -55.082031 25.140625 -57.75 29.640625 C -57.894531 29.960938 -58.039062 30.257812 -58.1875 30.53125 Z M -72.9375 37.734375 C -74.664062 43.566406 -76.476562 49.410156 -78.375 55.265625 C -78.445312 55.578125 -78.722656 56.492188 -79.203125 58.015625 C -79.679688 59.535156 -80.234375 61.300781 -80.859375 63.3125 C -81.484375 65.332031 -82.050781 67.238281 -82.5625 69.03125 C -83.070312 70.832031 -83.414062 72.175781 -83.59375 73.0625 C -83.78125 73.945312 -83.6875 74.007812 -83.3125 73.25 C -83.207031 73.09375 -83.128906 72.929688 -83.078125 72.765625 C -82.742188 72.128906 -82.4375 71.488281 -82.15625 70.84375 C -79.6875 65.6875 -77.195312 60.53125 -74.6875 55.375 C -72.1875 50.226562 -69.566406 45.132812 -66.828125 40.09375 C -66.566406 39.613281 -66.300781 39.109375 -66.03125 38.578125 C -65.5 37.617188 -64.984375 36.660156 -64.484375 35.703125 C -64.273438 35.296875 -64.238281 34.976562 -64.375 34.75 C -64.519531 34.519531 -64.796875 34.429688 -65.203125 34.484375 C -65.867188 34.566406 -66.53125 34.664062 -67.1875 34.78125 C -68.21875 35 -69.242188 35.175781 -70.265625 35.3125 C -71.054688 35.375 -71.644531 35.613281 -72.03125 36.03125 C -72.425781 36.457031 -72.726562 37.023438 -72.9375 37.734375 Z M -72.9375 37.734375 "/></g></g></g><g fill="#ffffff" fill-opacity="1"><g transform="translate(162.127043, 251.276647)"><g><path d="M 113.5625 -68.265625 C 113.96875 -67.941406 114.332031 -67.582031 114.65625 -67.1875 C 114.976562 -66.789062 115.191406 -66.304688 115.296875 -65.734375 C 115.429688 -65.117188 115.222656 -64.632812 114.671875 -64.28125 C 114.347656 -64.113281 114.03125 -64.082031 113.71875 -64.1875 C 113.40625 -64.300781 113.175781 -64.535156 113.03125 -64.890625 C 112.632812 -65.859375 112.0625 -66.617188 111.3125 -67.171875 C 110.570312 -67.722656 109.773438 -68.195312 108.921875 -68.59375 C 107.015625 -69.53125 105.050781 -70.273438 103.03125 -70.828125 C 101.007812 -71.390625 98.976562 -71.863281 96.9375 -72.25 C 93.519531 -72.863281 88.992188 -73.191406 83.359375 -73.234375 C 77.722656 -73.273438 71.453125 -72.992188 64.546875 -72.390625 C 57.648438 -71.796875 50.601562 -70.832031 43.40625 -69.5 C 36.207031 -68.175781 29.332031 -66.445312 22.78125 -64.3125 C 16.226562 -62.1875 10.488281 -59.613281 5.5625 -56.59375 C 0.644531 -53.582031 -2.976562 -50.097656 -5.3125 -46.140625 C -7.269531 -42.703125 -7.566406 -39.132812 -6.203125 -35.4375 C -5.222656 -32.882812 -3.867188 -30.582031 -2.140625 -28.53125 C 0.460938 -25.46875 3.316406 -22.664062 6.421875 -20.125 C 9.046875 -17.882812 11.695312 -15.644531 14.375 -13.40625 C 16.957031 -11.25 19.554688 -9.0625 22.171875 -6.84375 C 25.066406 -4.332031 27.925781 -1.789062 30.75 0.78125 C 31 1.019531 31.265625 1.253906 31.546875 1.484375 C 33.066406 2.816406 34.410156 4.296875 35.578125 5.921875 C 36.796875 7.804688 37.066406 9.285156 36.390625 10.359375 C 35.722656 11.429688 34.398438 12.1875 32.421875 12.625 C 30.441406 13.0625 28.132812 13.25 25.5 13.1875 C 22.875 13.125 20.222656 12.875 17.546875 12.4375 C 14.867188 12.007812 12.484375 11.472656 10.390625 10.828125 C 8.296875 10.179688 6.816406 9.488281 5.953125 8.75 C 4.191406 7.226562 4.023438 5.5625 5.453125 3.75 C 6.984375 1.882812 8.890625 0.507812 11.171875 -0.375 C 14.453125 -1.769531 17.804688 -1.976562 21.234375 -1 C 21.910156 -0.789062 22.550781 -0.5 23.15625 -0.125 C 23.21875 -0.09375 23.269531 -0.0546875 23.3125 -0.015625 C 23.488281 0.0546875 23.609375 0.179688 23.671875 0.359375 C 23.734375 0.546875 23.707031 0.742188 23.59375 0.953125 C 23.332031 1.285156 23.007812 1.394531 22.625 1.28125 C 22.25 1.15625 21.890625 1 21.546875 0.8125 C 19.148438 -0.289062 16.71875 -0.457031 14.25 0.3125 C 11.789062 1.082031 9.734375 2.507812 8.078125 4.59375 C 7.367188 5.59375 7.359375 6.453125 8.046875 7.171875 C 8.742188 7.890625 9.789062 8.484375 11.1875 8.953125 C 12.582031 9.429688 13.976562 9.789062 15.375 10.03125 C 16.78125 10.28125 17.832031 10.445312 18.53125 10.53125 C 18.664062 10.53125 18.757812 10.546875 18.8125 10.578125 C 18.945312 10.566406 19.113281 10.570312 19.3125 10.59375 C 20.1875 10.757812 21.394531 10.925781 22.9375 11.09375 C 24.476562 11.257812 26.0625 11.359375 27.6875 11.390625 C 29.320312 11.429688 30.710938 11.28125 31.859375 10.9375 C 33.015625 10.59375 33.65625 9.992188 33.78125 9.140625 C 33.90625 8.296875 33.21875 7.054688 31.71875 5.421875 C 30.125 3.703125 28.441406 2.03125 26.671875 0.40625 C 22.273438 -3.59375 17.769531 -7.457031 13.15625 -11.1875 C 11.5 -12.582031 9.84375 -13.984375 8.1875 -15.390625 C 5.425781 -17.710938 2.703125 -20.097656 0.015625 -22.546875 C -2.453125 -24.804688 -4.648438 -27.304688 -6.578125 -30.046875 C -7.960938 -32.035156 -8.953125 -34.191406 -9.546875 -36.515625 C -10.453125 -40.328125 -9.851562 -43.882812 -7.75 -47.1875 C -5.445312 -50.914062 -2.039062 -54.253906 2.46875 -57.203125 C 6.976562 -60.160156 12.226562 -62.726562 18.21875 -64.90625 C 24.207031 -67.082031 30.601562 -68.894531 37.40625 -70.34375 C 44.21875 -71.789062 51.113281 -72.878906 58.09375 -73.609375 C 65.070312 -74.347656 71.769531 -74.738281 78.1875 -74.78125 C 84.613281 -74.820312 90.441406 -74.519531 95.671875 -73.875 C 100.898438 -73.238281 105.191406 -72.265625 108.546875 -70.953125 C 110.328125 -70.316406 112 -69.421875 113.5625 -68.265625 Z M 113.5625 -68.265625 "/></g></g></g></svg>